<svg width="388" height="122" viewBox="0 0 388 122" fill="none" xmlns="http://www.w3.org/2000/svg">
<g id="logo-text">
<g id="Vector" filter="url(#filter0_i_179_152)">
<path d="M337.023 97.6049C335.262 97.6049 333.942 97.1206 333.061 96.152C332.181 95.1835 331.74 93.8187 331.74 92.0576V36.9815C331.74 35.2205 332.181 33.8997 333.061 33.0192C333.942 32.0507 335.218 31.5664 336.891 31.5664C338.564 31.5664 339.841 32.0507 340.722 33.0192C341.69 33.8997 342.174 35.2205 342.174 36.9815V48.3402L340.722 46.7552C342.571 41.6482 345.564 37.818 349.703 35.2645C353.929 32.623 358.772 31.3022 364.231 31.3022C369.338 31.3022 373.565 32.2268 376.911 34.0758C380.345 35.9249 382.898 38.7426 384.571 42.5288C386.244 46.2269 387.081 50.9377 387.081 56.661V92.0576C387.081 93.8187 386.596 95.1835 385.628 96.152C384.747 97.1206 383.47 97.6049 381.797 97.6049C380.036 97.6049 378.672 97.1206 377.703 96.152C376.823 95.1835 376.382 93.8187 376.382 92.0576V57.3214C376.382 51.3339 375.194 46.9754 372.816 44.2458C370.527 41.4281 366.829 40.0193 361.722 40.0193C355.822 40.0193 351.112 41.8684 347.59 45.5665C344.156 49.1766 342.439 54.0195 342.439 60.095V92.0576C342.439 95.7558 340.633 97.6049 337.023 97.6049Z" fill="url(#paint0_linear_179_152)"/>
</g>
<g id="Vector_2" filter="url(#filter1_i_179_152)">
<path d="M278.16 121.379C276.839 121.379 275.783 121.026 274.99 120.322C274.198 119.618 273.714 118.649 273.537 117.416C273.449 116.272 273.669 115.083 274.198 113.85L283.311 93.3783V98.001L257.952 39.0947C257.424 37.7739 257.248 36.5412 257.424 35.3965C257.6 34.2519 258.128 33.3273 259.009 32.6229C259.889 31.9185 261.122 31.5663 262.707 31.5663C264.116 31.5663 265.217 31.8745 266.009 32.4908C266.801 33.1072 267.506 34.2078 268.122 35.7927L289.783 88.8877H286.217L308.142 35.7927C308.846 34.2078 309.594 33.1072 310.387 32.4908C311.179 31.8745 312.324 31.5663 313.821 31.5663C315.23 31.5663 316.286 31.9185 316.991 32.6229C317.783 33.3273 318.223 34.2519 318.312 35.3965C318.488 36.4531 318.312 37.6418 317.783 38.9626L283.971 117.152C283.267 118.737 282.475 119.838 281.594 120.454C280.802 121.07 279.657 121.379 278.16 121.379Z" fill="url(#paint1_linear_179_152)"/>
</g>
<g id="Vector_3" filter="url(#filter2_i_179_152)">
<path d="M245.781 97.8691C239.441 97.8691 234.598 95.932 231.252 92.0577C227.906 88.1834 226.233 82.6362 226.233 75.416V8.05673C226.233 6.2957 226.674 4.97493 227.554 4.09441C228.435 3.12585 229.756 2.64157 231.517 2.64157C233.19 2.64157 234.51 3.12585 235.479 4.09441C236.447 4.97493 236.932 6.2957 236.932 8.05673V74.6235C236.932 79.3783 237.856 82.9444 239.705 85.3218C241.642 87.6111 244.46 88.7558 248.158 88.7558C248.951 88.7558 249.655 88.7118 250.271 88.6237C250.888 88.5357 251.504 88.4916 252.121 88.4916C253.089 88.4036 253.75 88.6237 254.102 89.152C254.542 89.6803 254.762 90.7369 254.762 92.3218C254.762 93.9068 254.41 95.0955 253.705 95.8879C253.001 96.6804 251.856 97.2087 250.271 97.4729C249.567 97.5609 248.819 97.649 248.026 97.737C247.234 97.8251 246.485 97.8691 245.781 97.8691Z" fill="url(#paint2_linear_179_152)"/>
</g>
<g id="Vector_4" filter="url(#filter3_i_179_152)">
<path d="M118.664 97.6049C116.903 97.6049 115.582 97.1206 114.702 96.152C113.821 95.1835 113.381 93.8187 113.381 92.0576V36.9815C113.381 35.2205 113.821 33.8997 114.702 33.0192C115.582 32.0507 116.859 31.5664 118.532 31.5664C120.205 31.5664 121.482 32.0507 122.362 33.0192C123.331 33.8997 123.815 35.2205 123.815 36.9815V48.6043L122.362 46.7552C124.035 41.8244 126.721 38.0381 130.419 35.3966C134.205 32.667 138.696 31.3022 143.891 31.3022C149.35 31.3022 153.752 32.623 157.098 35.2645C160.532 37.818 163.966 44.555 163.966 58.5101H161.985C163.57 53.5792 166.388 49.7049 170.438 46.8873C174.577 43.9816 179.375 42.5288 184.834 42.5288C189.677 42.5288 193.64 43.4533 196.721 45.3024C199.891 47.1515 202.269 49.9691 203.854 53.7553C205.439 57.4535 206.231 62.1642 206.231 67.8875V92.0576C206.231 93.8187 205.747 95.1835 204.778 96.152C203.898 97.1206 202.577 97.6049 200.816 97.6049C199.143 97.6049 197.822 97.1206 196.853 96.152C195.973 95.1835 195.533 93.8187 195.533 92.0576V68.4159C195.533 62.5164 194.52 58.2019 192.495 55.4723C190.47 52.6547 187.036 51.2458 182.193 51.2458C176.91 51.2458 172.727 53.0949 169.646 56.7931C166.652 60.4032 165.155 65.3341 165.155 71.5857V92.0576C165.155 93.8187 164.671 95.1835 163.702 96.152C162.822 97.1206 161.501 97.6049 159.74 97.6049C158.067 97.6049 156.746 97.1206 155.778 96.152C154.897 95.1835 154.457 93.8187 154.457 92.0576V57.1893C154.457 51.2899 153.4 46.9754 151.287 44.2458C149.262 41.4281 145.872 40.0193 141.117 40.0193C135.834 40.0193 131.651 41.8684 128.57 45.5665C125.576 49.1766 124.079 54.1075 124.079 60.3592V92.0576C124.079 95.7558 122.274 97.6049 118.664 97.6049Z" fill="url(#paint3_linear_179_152)"/>
</g>
<g id="Vector_5" filter="url(#filter4_i_179_152)">
<path d="M61.7986 97.869C56.6035 97.869 52.289 96.9445 48.855 95.0954C45.5091 93.1583 42.9556 90.2966 41.1946 86.5104C39.5216 82.7242 38.6851 78.0134 38.6851 72.3782V36.9815C38.6851 35.1324 39.1253 33.7676 40.0059 32.8871C40.9744 32.0066 42.2952 31.5664 43.9682 31.5664C45.7292 31.5664 47.05 32.0066 47.9305 32.8871C48.899 33.7676 49.3833 35.1324 49.3833 36.9815V72.2461C49.3833 77.8814 50.528 82.1078 52.8173 84.9255C55.1947 87.6551 58.8929 89.0199 63.9118 89.0199C69.371 89.0199 73.8176 87.1708 77.2516 83.4726C80.6856 79.7745 82.4026 74.9316 82.4026 68.9442L82.6667 36.9814C82.6667 35.1324 83.107 33.7676 83.9875 32.8871C84.9561 32.0065 86.3209 31.5663 88.0819 31.5663C89.7549 31.5663 91.0316 32.0065 91.9121 32.8871C92.8807 33.7676 93.365 35.1324 93.365 36.9814L93.1008 92.0576C93.1008 95.7558 91.3838 97.6049 87.9498 97.6049C86.2768 97.6049 84.9561 97.1206 83.9875 96.152C83.107 95.1835 82.6667 93.8187 82.6667 92.0576V80.0386L84.3837 81.8877C82.6227 87.0827 79.717 91.045 75.6667 93.7746C71.7043 96.5042 67.0816 97.869 61.7986 97.869Z" fill="url(#paint4_linear_179_152)"/>
</g>
<g id="Vector_6" filter="url(#filter5_i_179_152)">
<path d="M19.5474 97.8691C13.2077 97.8691 8.36489 95.932 5.01894 92.0577C1.67299 88.1834 1.52588e-05 82.6362 1.52588e-05 75.416V8.05673C1.52588e-05 6.2957 0.440272 4.97493 1.32079 4.09441C2.2013 3.12585 3.52207 2.64157 5.2831 2.64157C6.95607 2.64157 8.27684 3.12585 9.24541 4.09441C10.214 4.97493 10.6983 6.2957 10.6983 8.05673V74.6235C10.6983 79.3783 11.6228 82.9444 13.4719 85.3218C15.409 87.6111 18.2266 88.7558 21.9248 88.7558C22.7173 88.7558 23.4217 88.7118 24.038 88.6237C24.6544 88.5357 25.2707 88.4916 25.8871 88.4916C26.8557 88.4036 27.5161 88.6237 27.8683 89.152C28.3085 89.6803 28.5287 90.7369 28.5287 92.3218C28.5287 93.9068 28.1764 95.0955 27.472 95.8879C26.7676 96.6804 25.623 97.2087 24.038 97.4729C23.3336 97.5609 22.5852 97.649 21.7927 97.737C21.0003 97.8251 20.2518 97.8691 19.5474 97.8691Z" fill="url(#paint5_linear_179_152)"/>
</g>
<g id="HeadA" filter="url(#filter6_i_179_152)">
<path d="M153.209 13.2077C153.209 20.5021 147.296 26.4154 140.002 26.4154C132.707 26.4154 126.794 20.5021 126.794 13.2077C126.794 5.91332 132.707 3.05176e-05 140.002 3.05176e-05C147.296 3.05176e-05 153.209 5.91332 153.209 13.2077Z" fill="url(#paint6_linear_179_152)"/>
</g>
<path id="Ellipse A" d="M148.053 9.38735C148.053 11.5757 146.279 13.3497 144.091 13.3497C141.902 13.3497 140.128 11.5757 140.128 9.38735C140.128 7.19903 141.902 5.42504 144.091 5.42504C146.279 5.42504 148.053 7.19903 148.053 9.38735Z" fill="white" fill-opacity="0.2"/>
<g id="HeadB" filter="url(#filter7_i_179_152)">
<circle cx="183.587" cy="27.7362" r="9.24539" fill="url(#paint7_linear_179_152)"/>
</g>
<path id="Ellipse B" d="M189.515 24.6145C189.515 25.7086 188.628 26.5956 187.534 26.5956C186.44 26.5956 185.553 25.7086 185.553 24.6145C185.553 23.5203 186.44 22.6333 187.534 22.6333C188.628 22.6333 189.515 23.5203 189.515 24.6145Z" fill="white" fill-opacity="0.2"/>
</g>
<defs>
<filter id="filter0_i_179_152" x="331.74" y="31.3022" width="55.3403" height="68.9442" filterUnits="userSpaceOnUse" color-interpolation-filters="sRGB">
<feFlood flood-opacity="0" result="BackgroundImageFix"/>
<feBlend mode="normal" in="SourceGraphic" in2="BackgroundImageFix" result="shape"/>
<feColorMatrix in="SourceAlpha" type="matrix" values="0 0 0 0 0 0 0 0 0 0 0 0 0 0 0 0 0 0 127 0" result="hardAlpha"/>
<feOffset dy="2.64154"/>
<feGaussianBlur stdDeviation="2.64154"/>
<feComposite in2="hardAlpha" operator="arithmetic" k2="-1" k3="1"/>
<feColorMatrix type="matrix" values="0 0 0 0 0 0 0 0 0 0 0 0 0 0 0 0 0 0 0.08 0"/>
<feBlend mode="normal" in2="shape" result="effect1_innerShadow_179_152"/>
</filter>
<filter id="filter1_i_179_152" x="257.358" y="31.5663" width="61.0196" height="92.4539" filterUnits="userSpaceOnUse" color-interpolation-filters="sRGB">
<feFlood flood-opacity="0" result="BackgroundImageFix"/>
<feBlend mode="normal" in="SourceGraphic" in2="BackgroundImageFix" result="shape"/>
<feColorMatrix in="SourceAlpha" type="matrix" values="0 0 0 0 0 0 0 0 0 0 0 0 0 0 0 0 0 0 127 0" result="hardAlpha"/>
<feOffset dy="2.64154"/>
<feGaussianBlur stdDeviation="2.64154"/>
<feComposite in2="hardAlpha" operator="arithmetic" k2="-1" k3="1"/>
<feColorMatrix type="matrix" values="0 0 0 0 0 0 0 0 0 0 0 0 0 0 0 0 0 0 0.08 0"/>
<feBlend mode="normal" in2="shape" result="effect1_innerShadow_179_152"/>
</filter>
<filter id="filter2_i_179_152" x="226.233" y="2.64157" width="28.5286" height="97.8691" filterUnits="userSpaceOnUse" color-interpolation-filters="sRGB">
<feFlood flood-opacity="0" result="BackgroundImageFix"/>
<feBlend mode="normal" in="SourceGraphic" in2="BackgroundImageFix" result="shape"/>
<feColorMatrix in="SourceAlpha" type="matrix" values="0 0 0 0 0 0 0 0 0 0 0 0 0 0 0 0 0 0 127 0" result="hardAlpha"/>
<feOffset dy="2.64154"/>
<feGaussianBlur stdDeviation="2.64154"/>
<feComposite in2="hardAlpha" operator="arithmetic" k2="-1" k3="1"/>
<feColorMatrix type="matrix" values="0 0 0 0 0 0 0 0 0 0 0 0 0 0 0 0 0 0 0.08 0"/>
<feBlend mode="normal" in2="shape" result="effect1_innerShadow_179_152"/>
</filter>
<filter id="filter3_i_179_152" x="113.381" y="31.3022" width="92.8501" height="68.9442" filterUnits="userSpaceOnUse" color-interpolation-filters="sRGB">
<feFlood flood-opacity="0" result="BackgroundImageFix"/>
<feBlend mode="normal" in="SourceGraphic" in2="BackgroundImageFix" result="shape"/>
<feColorMatrix in="SourceAlpha" type="matrix" values="0 0 0 0 0 0 0 0 0 0 0 0 0 0 0 0 0 0 127 0" result="hardAlpha"/>
<feOffset dy="2.64154"/>
<feGaussianBlur stdDeviation="2.64154"/>
<feComposite in2="hardAlpha" operator="arithmetic" k2="-1" k3="1"/>
<feColorMatrix type="matrix" values="0 0 0 0 0 0 0 0 0 0 0 0 0 0 0 0 0 0 0.08 0"/>
<feBlend mode="normal" in2="shape" result="effect1_innerShadow_179_152"/>
</filter>
<filter id="filter4_i_179_152" x="38.6851" y="31.5663" width="54.6799" height="68.9443" filterUnits="userSpaceOnUse" color-interpolation-filters="sRGB">
<feFlood flood-opacity="0" result="BackgroundImageFix"/>
<feBlend mode="normal" in="SourceGraphic" in2="BackgroundImageFix" result="shape"/>
<feColorMatrix in="SourceAlpha" type="matrix" values="0 0 0 0 0 0 0 0 0 0 0 0 0 0 0 0 0 0 127 0" result="hardAlpha"/>
<feOffset dy="2.64154"/>
<feGaussianBlur stdDeviation="2.64154"/>
<feComposite in2="hardAlpha" operator="arithmetic" k2="-1" k3="1"/>
<feColorMatrix type="matrix" values="0 0 0 0 0 0 0 0 0 0 0 0 0 0 0 0 0 0 0.08 0"/>
<feBlend mode="normal" in2="shape" result="effect1_innerShadow_179_152"/>
</filter>
<filter id="filter5_i_179_152" x="1.52588e-05" y="2.64157" width="28.5286" height="97.8691" filterUnits="userSpaceOnUse" color-interpolation-filters="sRGB">
<feFlood flood-opacity="0" result="BackgroundImageFix"/>
<feBlend mode="normal" in="SourceGraphic" in2="BackgroundImageFix" result="shape"/>
<feColorMatrix in="SourceAlpha" type="matrix" values="0 0 0 0 0 0 0 0 0 0 0 0 0 0 0 0 0 0 127 0" result="hardAlpha"/>
<feOffset dy="2.64154"/>
<feGaussianBlur stdDeviation="2.64154"/>
<feComposite in2="hardAlpha" operator="arithmetic" k2="-1" k3="1"/>
<feColorMatrix type="matrix" values="0 0 0 0 0 0 0 0 0 0 0 0 0 0 0 0 0 0 0.08 0"/>
<feBlend mode="normal" in2="shape" result="effect1_innerShadow_179_152"/>
</filter>
<filter id="filter6_i_179_152" x="126.794" y="3.05176e-05" width="26.4154" height="36.9816" filterUnits="userSpaceOnUse" color-interpolation-filters="sRGB">
<feFlood flood-opacity="0" result="BackgroundImageFix"/>
<feBlend mode="normal" in="SourceGraphic" in2="BackgroundImageFix" result="shape"/>
<feColorMatrix in="SourceAlpha" type="matrix" values="0 0 0 0 0 0 0 0 0 0 0 0 0 0 0 0 0 0 127 0" result="hardAlpha"/>
<feOffset dy="10.5662"/>
<feGaussianBlur stdDeviation="5.28308"/>
<feComposite in2="hardAlpha" operator="arithmetic" k2="-1" k3="1"/>
<feColorMatrix type="matrix" values="0 0 0 0 1 0 0 0 0 1 0 0 0 0 1 0 0 0 0.25 0"/>
<feBlend mode="normal" in2="shape" result="effect1_innerShadow_179_152"/>
</filter>
<filter id="filter7_i_179_152" x="174.342" y="18.4908" width="18.4908" height="29.0569" filterUnits="userSpaceOnUse" color-interpolation-filters="sRGB">
<feFlood flood-opacity="0" result="BackgroundImageFix"/>
<feBlend mode="normal" in="SourceGraphic" in2="BackgroundImageFix" result="shape"/>
<feColorMatrix in="SourceAlpha" type="matrix" values="0 0 0 0 0 0 0 0 0 0 0 0 0 0 0 0 0 0 127 0" result="hardAlpha"/>
<feOffset dy="10.5662"/>
<feGaussianBlur stdDeviation="5.28308"/>
<feComposite in2="hardAlpha" operator="arithmetic" k2="-1" k3="1"/>
<feColorMatrix type="matrix" values="0 0 0 0 1 0 0 0 0 1 0 0 0 0 1 0 0 0 0.25 0"/>
<feBlend mode="normal" in2="shape" result="effect1_innerShadow_179_152"/>
</filter>
<linearGradient id="paint0_linear_179_152" x1="331.74" y1="64.4535" x2="387.081" y2="64.4535" gradientUnits="userSpaceOnUse">
<stop stop-color="#FFB88C"/>
<stop offset="1" stop-color="#FFB282"/>
</linearGradient>
<linearGradient id="paint1_linear_179_152" x1="257.358" y1="76.4725" x2="318.378" y2="76.4725" gradientUnits="userSpaceOnUse">
<stop stop-color="#FFB88C"/>
<stop offset="1" stop-color="#FFB282"/>
</linearGradient>
<linearGradient id="paint2_linear_179_152" x1="226.233" y1="50.2553" x2="254.762" y2="50.2553" gradientUnits="userSpaceOnUse">
<stop stop-color="#FFB88C"/>
<stop offset="1" stop-color="#FFB282"/>
</linearGradient>
<linearGradient id="paint3_linear_179_152" x1="113.381" y1="64.4535" x2="206.231" y2="64.4535" gradientUnits="userSpaceOnUse">
<stop stop-color="#FFB88C"/>
<stop offset="1" stop-color="#FFB282"/>
</linearGradient>
<linearGradient id="paint4_linear_179_152" x1="38.6851" y1="64.7177" x2="93.365" y2="64.7177" gradientUnits="userSpaceOnUse">
<stop stop-color="#FFB88C"/>
<stop offset="1" stop-color="#FFB282"/>
</linearGradient>
<linearGradient id="paint5_linear_179_152" x1="1.52588e-05" y1="50.2553" x2="28.5287" y2="50.2553" gradientUnits="userSpaceOnUse">
<stop stop-color="#FFB88C"/>
<stop offset="1" stop-color="#FFB282"/>
</linearGradient>
<linearGradient id="paint6_linear_179_152" x1="140.002" y1="3.05176e-05" x2="140.002" y2="26.4154" gradientUnits="userSpaceOnUse">
<stop stop-color="#A8EDE1"/>
<stop offset="1" stop-color="#52D6C5"/>
</linearGradient>
<linearGradient id="paint7_linear_179_152" x1="174.342" y1="27.7362" x2="192.832" y2="27.7362" gradientUnits="userSpaceOnUse">
<stop stop-color="#FFB88C"/>
<stop offset="1" stop-color="#FFB282"/>
</linearGradient>
</defs>
</svg>
