<svg width="576" height="384" viewBox="0 0 576 384" fill="none" xmlns="http://www.w3.org/2000/svg">
<g id="logo">
<g id="logo-icon" filter="url(#filter0_d_155_105)">
<path d="M188.939 139.027C43.6538 -52.485 -21.0637 185.254 83.277 293.557C93.8431 304.123 121.315 325.519 146.674 326.576C178.372 327.897 208.75 317.331 225.92 305.444C243.09 293.557 263.88 352.396 324.978 301.481C364.601 268.462 421.394 416.388 517.81 271.104C593.094 149.593 486.992 140.347 438.564 153.555C388.903 -88.4099 251.455 43.0506 188.939 139.027Z" fill="url(#paint0_linear_155_105)"/>
<path d="M188.939 139.027C43.6538 -52.485 -21.0637 185.254 83.277 293.557C93.8431 304.123 121.315 325.519 146.674 326.576C178.372 327.897 208.75 317.331 225.92 305.444C243.09 293.557 263.88 352.396 324.978 301.481C364.601 268.462 421.394 416.388 517.81 271.104C593.094 149.593 486.992 140.347 438.564 153.555C388.903 -88.4099 251.455 43.0506 188.939 139.027Z" fill="url(#paint1_linear_155_105)" style="mix-blend-mode:soft-light"/>
</g>
<g id="logo-text">
<g id="Vector" filter="url(#filter1_d_155_105)">
<path d="M437.47 270.972C435.709 270.972 434.388 270.487 433.508 269.519C432.627 268.55 432.187 267.185 432.187 265.424V210.348C432.187 208.587 432.627 207.266 433.508 206.386C434.388 205.417 435.665 204.933 437.338 204.933C439.011 204.933 440.288 205.417 441.168 206.386C442.137 207.266 442.621 208.587 442.621 210.348V221.707L441.168 220.122C443.017 215.015 446.011 211.185 450.15 208.631C454.376 205.99 459.219 204.669 464.678 204.669C469.785 204.669 474.012 205.593 477.358 207.443C480.792 209.292 483.345 212.109 485.018 215.895C486.691 219.594 487.527 224.304 487.527 230.028V265.424C487.527 267.185 487.043 268.55 486.075 269.519C485.194 270.487 483.917 270.972 482.244 270.972C480.483 270.972 479.119 270.487 478.15 269.519C477.269 268.55 476.829 267.185 476.829 265.424V230.688C476.829 224.701 475.641 220.342 473.263 217.612C470.974 214.795 467.276 213.386 462.169 213.386C456.269 213.386 451.558 215.235 448.036 218.933C444.602 222.543 442.885 227.386 442.885 233.462V265.424C442.885 269.122 441.08 270.972 437.47 270.972Z" fill="white"/>
</g>
<g id="Vector_2" filter="url(#filter2_d_155_105)">
<path d="M378.607 294.745C377.286 294.745 376.23 294.393 375.437 293.689C374.645 292.984 374.16 292.016 373.984 290.783C373.896 289.638 374.116 288.45 374.645 287.217L383.758 266.745V271.368L358.399 212.461C357.871 211.141 357.695 209.908 357.871 208.763C358.047 207.619 358.575 206.694 359.456 205.99C360.336 205.285 361.569 204.933 363.154 204.933C364.563 204.933 365.663 205.241 366.456 205.858C367.248 206.474 367.953 207.575 368.569 209.159L390.23 262.254H386.664L408.588 209.159C409.293 207.575 410.041 206.474 410.834 205.858C411.626 205.241 412.771 204.933 414.268 204.933C415.677 204.933 416.733 205.285 417.438 205.99C418.23 206.694 418.67 207.619 418.758 208.763C418.935 209.82 418.758 211.009 418.23 212.329L384.418 290.519C383.714 292.104 382.922 293.204 382.041 293.821C381.249 294.437 380.104 294.745 378.607 294.745Z" fill="white"/>
</g>
<g id="Vector_3" filter="url(#filter3_d_155_105)">
<path d="M346.228 271.236C339.888 271.236 335.045 269.299 331.699 265.424C328.353 261.55 326.68 256.003 326.68 248.783V181.423C326.68 179.662 327.121 178.342 328.001 177.461C328.882 176.493 330.202 176.008 331.963 176.008C333.636 176.008 334.957 176.493 335.926 177.461C336.894 178.342 337.379 179.662 337.379 181.423V247.99C337.379 252.745 338.303 256.311 340.152 258.688C342.089 260.978 344.907 262.122 348.605 262.122C349.398 262.122 350.102 262.078 350.718 261.99C351.335 261.902 351.951 261.858 352.567 261.858C353.536 261.77 354.196 261.99 354.549 262.519C354.989 263.047 355.209 264.104 355.209 265.689C355.209 267.273 354.857 268.462 354.152 269.255C353.448 270.047 352.303 270.575 350.718 270.84C350.014 270.928 349.266 271.016 348.473 271.104C347.681 271.192 346.932 271.236 346.228 271.236Z" fill="white"/>
</g>
<g id="Vector_4" filter="url(#filter4_d_155_105)">
<path d="M219.111 270.972C217.35 270.972 216.029 270.487 215.148 269.519C214.268 268.55 213.828 267.185 213.828 265.424V210.348C213.828 208.587 214.268 207.266 215.148 206.386C216.029 205.417 217.306 204.933 218.979 204.933C220.652 204.933 221.928 205.417 222.809 206.386C223.778 207.266 224.262 208.587 224.262 210.348V221.971L222.809 220.122C224.482 215.191 227.168 211.405 230.866 208.763C234.652 206.034 239.142 204.669 244.338 204.669C249.797 204.669 254.199 205.99 257.545 208.631C260.979 211.185 264.413 217.922 264.413 231.877H262.432C264.017 226.946 266.835 223.072 270.885 220.254C275.023 217.348 279.822 215.895 285.281 215.895C290.124 215.895 294.087 216.82 297.168 218.669C300.338 220.518 302.716 223.336 304.3 227.122C305.885 230.82 306.678 235.531 306.678 241.254V265.424C306.678 267.185 306.194 268.55 305.225 269.519C304.344 270.487 303.024 270.972 301.263 270.972C299.59 270.972 298.269 270.487 297.3 269.519C296.42 268.55 295.98 267.185 295.98 265.424V241.783C295.98 235.883 294.967 231.569 292.942 228.839C290.917 226.021 287.483 224.613 282.64 224.613C277.357 224.613 273.174 226.462 270.093 230.16C267.099 233.77 265.602 238.701 265.602 244.952V265.424C265.602 267.185 265.118 268.55 264.149 269.519C263.269 270.487 261.948 270.972 260.187 270.972C258.514 270.972 257.193 270.487 256.224 269.519C255.344 268.55 254.904 267.185 254.904 265.424V230.556C254.904 224.657 253.847 220.342 251.734 217.612C249.709 214.795 246.319 213.386 241.564 213.386C236.281 213.386 232.098 215.235 229.017 218.933C226.023 222.543 224.526 227.474 224.526 233.726V265.424C224.526 269.122 222.721 270.972 219.111 270.972Z" fill="white"/>
</g>
<g id="Vector_5" filter="url(#filter5_d_155_105)">
<path d="M162.245 271.236C157.05 271.236 152.736 270.311 149.302 268.462C145.956 266.525 143.402 263.663 141.641 259.877C139.968 256.091 139.132 251.38 139.132 245.745V210.348C139.132 208.499 139.572 207.134 140.453 206.254C141.421 205.373 142.742 204.933 144.415 204.933C146.176 204.933 147.497 205.373 148.377 206.254C149.346 207.134 149.83 208.499 149.83 210.348V245.613C149.83 251.248 150.975 255.475 153.264 258.292C155.642 261.022 159.34 262.387 164.359 262.387C169.818 262.387 174.264 260.538 177.698 256.839C181.132 253.141 182.849 248.298 182.849 242.311L183.114 210.348C183.114 208.499 183.554 207.134 184.434 206.254C185.403 205.373 186.768 204.933 188.529 204.933C190.202 204.933 191.479 205.373 192.359 206.254C193.328 207.134 193.812 208.499 193.812 210.348L193.548 265.424C193.548 269.123 191.831 270.972 188.397 270.972C186.724 270.972 185.403 270.487 184.434 269.519C183.554 268.55 183.114 267.185 183.114 265.424V253.405L184.831 255.254C183.07 260.449 180.164 264.412 176.114 267.141C172.151 269.871 167.529 271.236 162.245 271.236Z" fill="white"/>
</g>
<g id="Vector_6" filter="url(#filter6_d_155_105)">
<path d="M119.994 271.236C113.655 271.236 108.812 269.299 105.466 265.424C102.12 261.55 100.447 256.003 100.447 248.783V181.423C100.447 179.662 100.887 178.342 101.768 177.461C102.648 176.493 103.969 176.008 105.73 176.008C107.403 176.008 108.724 176.493 109.692 177.461C110.661 178.342 111.145 179.662 111.145 181.423V247.99C111.145 252.745 112.07 256.311 113.919 258.688C115.856 260.978 118.674 262.122 122.372 262.122C123.164 262.122 123.869 262.078 124.485 261.99C125.101 261.902 125.718 261.858 126.334 261.858C127.303 261.77 127.963 261.99 128.315 262.519C128.755 263.047 128.976 264.104 128.976 265.689C128.976 267.273 128.623 268.462 127.919 269.255C127.215 270.047 126.07 270.575 124.485 270.84C123.781 270.928 123.032 271.016 122.24 271.104C121.447 271.192 120.699 271.236 119.994 271.236Z" fill="white"/>
</g>
<g id="HeadA" filter="url(#filter7_i_155_105)">
<path d="M253.656 186.574C253.656 193.869 247.743 199.782 240.449 199.782C233.154 199.782 227.241 193.869 227.241 186.574C227.241 179.28 233.154 173.367 240.449 173.367C247.743 173.367 253.656 179.28 253.656 186.574Z" fill="url(#paint2_linear_155_105)"/>
</g>
<path id="Ellipse A" d="M248.5 182.754C248.5 184.942 246.726 186.716 244.538 186.716C242.349 186.716 240.575 184.942 240.575 182.754C240.575 180.566 242.349 178.792 244.538 178.792C246.726 178.792 248.5 180.566 248.5 182.754Z" fill="white" fill-opacity="0.2"/>
<g id="HeadB" filter="url(#filter8_i_155_105)">
<circle cx="284.034" cy="201.103" r="9.24539" fill="url(#paint3_linear_155_105)"/>
</g>
<path id="Ellipse B" d="M289.962 197.981C289.962 199.075 289.075 199.962 287.981 199.962C286.887 199.962 286 199.075 286 197.981C286 196.887 286.887 196 287.981 196C289.075 196 289.962 196.887 289.962 197.981Z" fill="white" fill-opacity="0.2"/>
</g>
</g>
<defs>
<filter id="filter0_d_155_105" x="0.301519" y="0.150758" width="575.397" height="383.645" filterUnits="userSpaceOnUse" color-interpolation-filters="sRGB">
<feFlood flood-opacity="0" result="BackgroundImageFix"/>
<feColorMatrix in="SourceAlpha" type="matrix" values="0 0 0 0 0 0 0 0 0 0 0 0 0 0 0 0 0 0 127 0" result="hardAlpha"/>
<feOffset dy="15.8492"/>
<feGaussianBlur stdDeviation="15.8492"/>
<feComposite in2="hardAlpha" operator="out"/>
<feColorMatrix type="matrix" values="0 0 0 0 0 0 0 0 0 0 0 0 0 0 0 0 0 0 0.2 0"/>
<feBlend mode="normal" in2="BackgroundImageFix" result="effect1_dropShadow_155_105"/>
<feBlend mode="normal" in="SourceGraphic" in2="effect1_dropShadow_155_105" result="shape"/>
</filter>
<filter id="filter1_d_155_105" x="426.904" y="202.027" width="65.9064" height="76.8688" filterUnits="userSpaceOnUse" color-interpolation-filters="sRGB">
<feFlood flood-opacity="0" result="BackgroundImageFix"/>
<feColorMatrix in="SourceAlpha" type="matrix" values="0 0 0 0 0 0 0 0 0 0 0 0 0 0 0 0 0 0 127 0" result="hardAlpha"/>
<feOffset dy="2.64154"/>
<feGaussianBlur stdDeviation="2.64154"/>
<feComposite in2="hardAlpha" operator="out"/>
<feColorMatrix type="matrix" values="0 0 0 0 0 0 0 0 0 0 0 0 0 0 0 0 0 0 0.08 0"/>
<feBlend mode="normal" in2="BackgroundImageFix" result="effect1_dropShadow_155_105"/>
<feBlend mode="normal" in="SourceGraphic" in2="effect1_dropShadow_155_105" result="shape"/>
</filter>
<filter id="filter2_d_155_105" x="352.522" y="202.291" width="71.5858" height="100.379" filterUnits="userSpaceOnUse" color-interpolation-filters="sRGB">
<feFlood flood-opacity="0" result="BackgroundImageFix"/>
<feColorMatrix in="SourceAlpha" type="matrix" values="0 0 0 0 0 0 0 0 0 0 0 0 0 0 0 0 0 0 127 0" result="hardAlpha"/>
<feOffset dy="2.64154"/>
<feGaussianBlur stdDeviation="2.64154"/>
<feComposite in2="hardAlpha" operator="out"/>
<feColorMatrix type="matrix" values="0 0 0 0 0 0 0 0 0 0 0 0 0 0 0 0 0 0 0.08 0"/>
<feBlend mode="normal" in2="BackgroundImageFix" result="effect1_dropShadow_155_105"/>
<feBlend mode="normal" in="SourceGraphic" in2="effect1_dropShadow_155_105" result="shape"/>
</filter>
<filter id="filter3_d_155_105" x="321.397" y="173.367" width="39.0948" height="105.794" filterUnits="userSpaceOnUse" color-interpolation-filters="sRGB">
<feFlood flood-opacity="0" result="BackgroundImageFix"/>
<feColorMatrix in="SourceAlpha" type="matrix" values="0 0 0 0 0 0 0 0 0 0 0 0 0 0 0 0 0 0 127 0" result="hardAlpha"/>
<feOffset dy="2.64154"/>
<feGaussianBlur stdDeviation="2.64154"/>
<feComposite in2="hardAlpha" operator="out"/>
<feColorMatrix type="matrix" values="0 0 0 0 0 0 0 0 0 0 0 0 0 0 0 0 0 0 0.08 0"/>
<feBlend mode="normal" in2="BackgroundImageFix" result="effect1_dropShadow_155_105"/>
<feBlend mode="normal" in="SourceGraphic" in2="effect1_dropShadow_155_105" result="shape"/>
</filter>
<filter id="filter4_d_155_105" x="208.545" y="202.027" width="103.416" height="76.8688" filterUnits="userSpaceOnUse" color-interpolation-filters="sRGB">
<feFlood flood-opacity="0" result="BackgroundImageFix"/>
<feColorMatrix in="SourceAlpha" type="matrix" values="0 0 0 0 0 0 0 0 0 0 0 0 0 0 0 0 0 0 127 0" result="hardAlpha"/>
<feOffset dy="2.64154"/>
<feGaussianBlur stdDeviation="2.64154"/>
<feComposite in2="hardAlpha" operator="out"/>
<feColorMatrix type="matrix" values="0 0 0 0 0 0 0 0 0 0 0 0 0 0 0 0 0 0 0.08 0"/>
<feBlend mode="normal" in2="BackgroundImageFix" result="effect1_dropShadow_155_105"/>
<feBlend mode="normal" in="SourceGraphic" in2="effect1_dropShadow_155_105" result="shape"/>
</filter>
<filter id="filter5_d_155_105" x="133.849" y="202.291" width="65.246" height="76.8689" filterUnits="userSpaceOnUse" color-interpolation-filters="sRGB">
<feFlood flood-opacity="0" result="BackgroundImageFix"/>
<feColorMatrix in="SourceAlpha" type="matrix" values="0 0 0 0 0 0 0 0 0 0 0 0 0 0 0 0 0 0 127 0" result="hardAlpha"/>
<feOffset dy="2.64154"/>
<feGaussianBlur stdDeviation="2.64154"/>
<feComposite in2="hardAlpha" operator="out"/>
<feColorMatrix type="matrix" values="0 0 0 0 0 0 0 0 0 0 0 0 0 0 0 0 0 0 0.08 0"/>
<feBlend mode="normal" in2="BackgroundImageFix" result="effect1_dropShadow_155_105"/>
<feBlend mode="normal" in="SourceGraphic" in2="effect1_dropShadow_155_105" result="shape"/>
</filter>
<filter id="filter6_d_155_105" x="95.1638" y="173.367" width="39.0948" height="105.794" filterUnits="userSpaceOnUse" color-interpolation-filters="sRGB">
<feFlood flood-opacity="0" result="BackgroundImageFix"/>
<feColorMatrix in="SourceAlpha" type="matrix" values="0 0 0 0 0 0 0 0 0 0 0 0 0 0 0 0 0 0 127 0" result="hardAlpha"/>
<feOffset dy="2.64154"/>
<feGaussianBlur stdDeviation="2.64154"/>
<feComposite in2="hardAlpha" operator="out"/>
<feColorMatrix type="matrix" values="0 0 0 0 0 0 0 0 0 0 0 0 0 0 0 0 0 0 0.08 0"/>
<feBlend mode="normal" in2="BackgroundImageFix" result="effect1_dropShadow_155_105"/>
<feBlend mode="normal" in="SourceGraphic" in2="effect1_dropShadow_155_105" result="shape"/>
</filter>
<filter id="filter7_i_155_105" x="227.241" y="173.367" width="26.4154" height="36.9816" filterUnits="userSpaceOnUse" color-interpolation-filters="sRGB">
<feFlood flood-opacity="0" result="BackgroundImageFix"/>
<feBlend mode="normal" in="SourceGraphic" in2="BackgroundImageFix" result="shape"/>
<feColorMatrix in="SourceAlpha" type="matrix" values="0 0 0 0 0 0 0 0 0 0 0 0 0 0 0 0 0 0 127 0" result="hardAlpha"/>
<feOffset dy="10.5662"/>
<feGaussianBlur stdDeviation="5.28308"/>
<feComposite in2="hardAlpha" operator="arithmetic" k2="-1" k3="1"/>
<feColorMatrix type="matrix" values="0 0 0 0 1 0 0 0 0 1 0 0 0 0 1 0 0 0 0.25 0"/>
<feBlend mode="normal" in2="shape" result="effect1_innerShadow_155_105"/>
</filter>
<filter id="filter8_i_155_105" x="274.789" y="191.858" width="18.4908" height="29.0569" filterUnits="userSpaceOnUse" color-interpolation-filters="sRGB">
<feFlood flood-opacity="0" result="BackgroundImageFix"/>
<feBlend mode="normal" in="SourceGraphic" in2="BackgroundImageFix" result="shape"/>
<feColorMatrix in="SourceAlpha" type="matrix" values="0 0 0 0 0 0 0 0 0 0 0 0 0 0 0 0 0 0 127 0" result="hardAlpha"/>
<feOffset dy="10.5662"/>
<feGaussianBlur stdDeviation="5.28308"/>
<feComposite in2="hardAlpha" operator="arithmetic" k2="-1" k3="1"/>
<feColorMatrix type="matrix" values="0 0 0 0 1 0 0 0 0 1 0 0 0 0 1 0 0 0 0.25 0"/>
<feBlend mode="normal" in2="shape" result="effect1_innerShadow_155_105"/>
</filter>
<linearGradient id="paint0_linear_155_105" x1="288.229" y1="313.173" x2="288.229" y2="-83.0577" gradientUnits="userSpaceOnUse">
<stop stop-color="#3B20FF"/>
<stop offset="1" stop-color="#7C73FF"/>
</linearGradient>
<linearGradient id="paint1_linear_155_105" x1="288" y1="16" x2="288" y2="336.248" gradientUnits="userSpaceOnUse">
<stop stop-color="white" stop-opacity="0.2"/>
</linearGradient>
<linearGradient id="paint2_linear_155_105" x1="240.449" y1="173.367" x2="240.449" y2="199.782" gradientUnits="userSpaceOnUse">
<stop stop-color="#A8EDE1"/>
<stop offset="1" stop-color="#52D6C5"/>
</linearGradient>
<linearGradient id="paint3_linear_155_105" x1="284.034" y1="191.858" x2="284.034" y2="210.348" gradientUnits="userSpaceOnUse">
<stop stop-color="#FFCCB3"/>
<stop offset="1" stop-color="#FFB88C"/>
</linearGradient>
</defs>
</svg>
