<svg width="399" height="130" viewBox="0 0 399 130" fill="none" xmlns="http://www.w3.org/2000/svg">
<g id="logo-text">
<g id="Vector" filter="url(#filter0_d_179_152)">
<path d="M343.023 97.6049C341.262 97.6049 339.942 97.1206 339.061 96.152C338.181 95.1835 337.74 93.8187 337.74 92.0576V36.9815C337.74 35.2205 338.181 33.8997 339.061 33.0192C339.942 32.0507 341.218 31.5664 342.891 31.5664C344.564 31.5664 345.841 32.0507 346.722 33.0192C347.69 33.8997 348.174 35.2205 348.174 36.9815V48.3402L346.722 46.7552C348.571 41.6482 351.564 37.818 355.703 35.2645C359.929 32.623 364.772 31.3022 370.231 31.3022C375.338 31.3022 379.565 32.2268 382.911 34.0758C386.345 35.9249 388.898 38.7426 390.571 42.5288C392.244 46.2269 393.081 50.9377 393.081 56.661V92.0576C393.081 93.8187 392.596 95.1835 391.628 96.152C390.747 97.1206 389.47 97.6049 387.797 97.6049C386.036 97.6049 384.672 97.1206 383.703 96.152C382.823 95.1835 382.382 93.8187 382.382 92.0576V57.3214C382.382 51.3339 381.194 46.9754 378.816 44.2458C376.527 41.4281 372.829 40.0193 367.722 40.0193C361.822 40.0193 357.112 41.8684 353.59 45.5665C350.156 49.1766 348.439 54.0195 348.439 60.095V92.0576C348.439 95.7558 346.633 97.6049 343.023 97.6049Z" fill="#111111"/>
</g>
<g id="Vector_2" filter="url(#filter1_d_179_152)">
<path d="M284.16 121.379C282.839 121.379 281.783 121.026 280.99 120.322C280.198 119.618 279.714 118.649 279.537 117.416C279.449 116.272 279.669 115.083 280.198 113.85L289.311 93.3783V98.001L263.952 39.0947C263.424 37.7739 263.248 36.5412 263.424 35.3965C263.6 34.2519 264.128 33.3273 265.009 32.6229C265.889 31.9185 267.122 31.5663 268.707 31.5663C270.116 31.5663 271.217 31.8745 272.009 32.4908C272.801 33.1072 273.506 34.2078 274.122 35.7927L295.783 88.8877H292.217L314.142 35.7927C314.846 34.2078 315.594 33.1072 316.387 32.4908C317.179 31.8745 318.324 31.5663 319.821 31.5663C321.23 31.5663 322.286 31.9185 322.991 32.6229C323.783 33.3273 324.223 34.2519 324.312 35.3965C324.488 36.4531 324.312 37.6418 323.783 38.9626L289.971 117.152C289.267 118.737 288.475 119.838 287.594 120.454C286.802 121.07 285.657 121.379 284.16 121.379Z" fill="#111111"/>
</g>
<g id="Vector_3" filter="url(#filter2_d_179_152)">
<path d="M251.781 97.8691C245.441 97.8691 240.598 95.932 237.252 92.0577C233.906 88.1834 232.233 82.6362 232.233 75.416V8.05673C232.233 6.2957 232.674 4.97493 233.554 4.09441C234.435 3.12585 235.756 2.64157 237.517 2.64157C239.19 2.64157 240.51 3.12585 241.479 4.09441C242.447 4.97493 242.932 6.2957 242.932 8.05673V74.6235C242.932 79.3783 243.856 82.9444 245.705 85.3218C247.642 87.6111 250.46 88.7558 254.158 88.7558C254.951 88.7558 255.655 88.7118 256.271 88.6237C256.888 88.5357 257.504 88.4916 258.121 88.4916C259.089 88.4036 259.75 88.6237 260.102 89.152C260.542 89.6803 260.762 90.7369 260.762 92.3218C260.762 93.9068 260.41 95.0955 259.705 95.8879C259.001 96.6804 257.856 97.2087 256.271 97.4729C255.567 97.5609 254.819 97.649 254.026 97.737C253.234 97.8251 252.485 97.8691 251.781 97.8691Z" fill="#111111"/>
</g>
<g id="Vector_4" filter="url(#filter3_d_179_152)">
<path d="M124.664 97.6049C122.903 97.6049 121.582 97.1206 120.702 96.152C119.821 95.1835 119.381 93.8187 119.381 92.0576V36.9815C119.381 35.2205 119.821 33.8997 120.702 33.0192C121.582 32.0507 122.859 31.5664 124.532 31.5664C126.205 31.5664 127.482 32.0507 128.362 33.0192C129.331 33.8997 129.815 35.2205 129.815 36.9815V48.6043L128.362 46.7552C130.035 41.8244 132.721 38.0381 136.419 35.3966C140.205 32.667 144.696 31.3022 149.891 31.3022C155.35 31.3022 159.752 32.623 163.098 35.2645C166.532 37.818 169.966 44.555 169.966 58.5101H167.985C169.57 53.5792 172.388 49.7049 176.438 46.8873C180.577 43.9816 185.375 42.5288 190.834 42.5288C195.677 42.5288 199.64 43.4533 202.721 45.3024C205.891 47.1515 208.269 49.9691 209.854 53.7553C211.439 57.4535 212.231 62.1642 212.231 67.8875V92.0576C212.231 93.8187 211.747 95.1835 210.778 96.152C209.898 97.1206 208.577 97.6049 206.816 97.6049C205.143 97.6049 203.822 97.1206 202.853 96.152C201.973 95.1835 201.533 93.8187 201.533 92.0576V68.4159C201.533 62.5164 200.52 58.2019 198.495 55.4723C196.47 52.6547 193.036 51.2458 188.193 51.2458C182.91 51.2458 178.727 53.0949 175.646 56.7931C172.652 60.4032 171.155 65.3341 171.155 71.5857V92.0576C171.155 93.8187 170.671 95.1835 169.702 96.152C168.822 97.1206 167.501 97.6049 165.74 97.6049C164.067 97.6049 162.746 97.1206 161.778 96.152C160.897 95.1835 160.457 93.8187 160.457 92.0576V57.1893C160.457 51.2899 159.4 46.9754 157.287 44.2458C155.262 41.4281 151.872 40.0193 147.117 40.0193C141.834 40.0193 137.651 41.8684 134.57 45.5665C131.576 49.1766 130.079 54.1075 130.079 60.3592V92.0576C130.079 95.7558 128.274 97.6049 124.664 97.6049Z" fill="#111111"/>
</g>
<g id="Vector_5" filter="url(#filter4_d_179_152)">
<path d="M67.7986 97.869C62.6035 97.869 58.289 96.9445 54.855 95.0954C51.5091 93.1583 48.9556 90.2966 47.1946 86.5104C45.5216 82.7242 44.6851 78.0134 44.6851 72.3782V36.9815C44.6851 35.1324 45.1253 33.7676 46.0059 32.8871C46.9744 32.0066 48.2952 31.5664 49.9682 31.5664C51.7292 31.5664 53.05 32.0066 53.9305 32.8871C54.899 33.7676 55.3833 35.1324 55.3833 36.9815V72.2461C55.3833 77.8814 56.528 82.1078 58.8173 84.9255C61.1947 87.6551 64.8929 89.0199 69.9118 89.0199C75.371 89.0199 79.8176 87.1708 83.2516 83.4726C86.6856 79.7745 88.4026 74.9316 88.4026 68.9442L88.6667 36.9814C88.6667 35.1324 89.107 33.7676 89.9875 32.8871C90.9561 32.0065 92.3209 31.5663 94.0819 31.5663C95.7549 31.5663 97.0316 32.0065 97.9121 32.8871C98.8807 33.7676 99.365 35.1324 99.365 36.9814L99.1008 92.0576C99.1008 95.7558 97.3838 97.6049 93.9498 97.6049C92.2768 97.6049 90.9561 97.1206 89.9875 96.152C89.107 95.1835 88.6667 93.8187 88.6667 92.0576V80.0386L90.3837 81.8877C88.6227 87.0827 85.717 91.045 81.6667 93.7746C77.7043 96.5042 73.0816 97.869 67.7986 97.869Z" fill="#111111"/>
</g>
<g id="Vector_6" filter="url(#filter5_d_179_152)">
<path d="M25.5474 97.8691C19.2077 97.8691 14.3649 95.932 11.0189 92.0577C7.67299 88.1834 6.00002 82.6362 6.00002 75.416V8.05673C6.00002 6.2957 6.44027 4.97493 7.32079 4.09441C8.2013 3.12585 9.52207 2.64157 11.2831 2.64157C12.9561 2.64157 14.2768 3.12585 15.2454 4.09441C16.214 4.97493 16.6983 6.2957 16.6983 8.05673V74.6235C16.6983 79.3783 17.6228 82.9444 19.4719 85.3218C21.409 87.6111 24.2266 88.7558 27.9248 88.7558C28.7173 88.7558 29.4217 88.7118 30.038 88.6237C30.6544 88.5357 31.2707 88.4916 31.8871 88.4916C32.8557 88.4036 33.5161 88.6237 33.8683 89.152C34.3085 89.6803 34.5287 90.7369 34.5287 92.3218C34.5287 93.9068 34.1764 95.0955 33.472 95.8879C32.7676 96.6804 31.623 97.2087 30.038 97.4729C29.3336 97.5609 28.5852 97.649 27.7927 97.737C27.0003 97.8251 26.2518 97.8691 25.5474 97.8691Z" fill="#111111"/>
</g>
<g id="HeadA" filter="url(#filter6_i_179_152)">
<path d="M159.209 13.2077C159.209 20.5021 153.296 26.4154 146.002 26.4154C138.707 26.4154 132.794 20.5021 132.794 13.2077C132.794 5.91332 138.707 3.05176e-05 146.002 3.05176e-05C153.296 3.05176e-05 159.209 5.91332 159.209 13.2077Z" fill="url(#paint0_linear_179_152)"/>
</g>
<path id="Ellipse A" d="M154.053 9.38735C154.053 11.5757 152.279 13.3497 150.091 13.3497C147.902 13.3497 146.128 11.5757 146.128 9.38735C146.128 7.19903 147.902 5.42504 150.091 5.42504C152.279 5.42504 154.053 7.19903 154.053 9.38735Z" fill="white" fill-opacity="0.2"/>
<g id="HeadB" filter="url(#filter7_i_179_152)">
<circle cx="189.587" cy="27.7362" r="9.24539" fill="url(#paint1_linear_179_152)"/>
</g>
<path id="Ellipse B" d="M195.515 24.6145C195.515 25.7086 194.628 26.5956 193.534 26.5956C192.44 26.5956 191.553 25.7086 191.553 24.6145C191.553 23.5203 192.44 22.6333 193.534 22.6333C194.628 22.6333 195.515 23.5203 195.515 24.6145Z" fill="white" fill-opacity="0.2"/>
</g>
<defs>
<filter id="filter0_d_179_152" x="332.457" y="28.6607" width="65.9064" height="76.8688" filterUnits="userSpaceOnUse" color-interpolation-filters="sRGB">
<feFlood flood-opacity="0" result="BackgroundImageFix"/>
<feColorMatrix in="SourceAlpha" type="matrix" values="0 0 0 0 0 0 0 0 0 0 0 0 0 0 0 0 0 0 127 0" result="hardAlpha"/>
<feOffset dy="2.64154"/>
<feGaussianBlur stdDeviation="2.64154"/>
<feComposite in2="hardAlpha" operator="out"/>
<feColorMatrix type="matrix" values="0 0 0 0 0 0 0 0 0 0 0 0 0 0 0 0 0 0 0.08 0"/>
<feBlend mode="normal" in2="BackgroundImageFix" result="effect1_dropShadow_179_152"/>
<feBlend mode="normal" in="SourceGraphic" in2="effect1_dropShadow_179_152" result="shape"/>
</filter>
<filter id="filter1_d_179_152" x="258.075" y="28.9247" width="71.5857" height="100.379" filterUnits="userSpaceOnUse" color-interpolation-filters="sRGB">
<feFlood flood-opacity="0" result="BackgroundImageFix"/>
<feColorMatrix in="SourceAlpha" type="matrix" values="0 0 0 0 0 0 0 0 0 0 0 0 0 0 0 0 0 0 127 0" result="hardAlpha"/>
<feOffset dy="2.64154"/>
<feGaussianBlur stdDeviation="2.64154"/>
<feComposite in2="hardAlpha" operator="out"/>
<feColorMatrix type="matrix" values="0 0 0 0 0 0 0 0 0 0 0 0 0 0 0 0 0 0 0.08 0"/>
<feBlend mode="normal" in2="BackgroundImageFix" result="effect1_dropShadow_179_152"/>
<feBlend mode="normal" in="SourceGraphic" in2="effect1_dropShadow_179_152" result="shape"/>
</filter>
<filter id="filter2_d_179_152" x="226.95" y="3.09944e-05" width="39.0948" height="105.794" filterUnits="userSpaceOnUse" color-interpolation-filters="sRGB">
<feFlood flood-opacity="0" result="BackgroundImageFix"/>
<feColorMatrix in="SourceAlpha" type="matrix" values="0 0 0 0 0 0 0 0 0 0 0 0 0 0 0 0 0 0 127 0" result="hardAlpha"/>
<feOffset dy="2.64154"/>
<feGaussianBlur stdDeviation="2.64154"/>
<feComposite in2="hardAlpha" operator="out"/>
<feColorMatrix type="matrix" values="0 0 0 0 0 0 0 0 0 0 0 0 0 0 0 0 0 0 0.08 0"/>
<feBlend mode="normal" in2="BackgroundImageFix" result="effect1_dropShadow_179_152"/>
<feBlend mode="normal" in="SourceGraphic" in2="effect1_dropShadow_179_152" result="shape"/>
</filter>
<filter id="filter3_d_179_152" x="114.098" y="28.6607" width="103.416" height="76.8688" filterUnits="userSpaceOnUse" color-interpolation-filters="sRGB">
<feFlood flood-opacity="0" result="BackgroundImageFix"/>
<feColorMatrix in="SourceAlpha" type="matrix" values="0 0 0 0 0 0 0 0 0 0 0 0 0 0 0 0 0 0 127 0" result="hardAlpha"/>
<feOffset dy="2.64154"/>
<feGaussianBlur stdDeviation="2.64154"/>
<feComposite in2="hardAlpha" operator="out"/>
<feColorMatrix type="matrix" values="0 0 0 0 0 0 0 0 0 0 0 0 0 0 0 0 0 0 0.08 0"/>
<feBlend mode="normal" in2="BackgroundImageFix" result="effect1_dropShadow_179_152"/>
<feBlend mode="normal" in="SourceGraphic" in2="effect1_dropShadow_179_152" result="shape"/>
</filter>
<filter id="filter4_d_179_152" x="39.402" y="28.9247" width="65.246" height="76.8689" filterUnits="userSpaceOnUse" color-interpolation-filters="sRGB">
<feFlood flood-opacity="0" result="BackgroundImageFix"/>
<feColorMatrix in="SourceAlpha" type="matrix" values="0 0 0 0 0 0 0 0 0 0 0 0 0 0 0 0 0 0 127 0" result="hardAlpha"/>
<feOffset dy="2.64154"/>
<feGaussianBlur stdDeviation="2.64154"/>
<feComposite in2="hardAlpha" operator="out"/>
<feColorMatrix type="matrix" values="0 0 0 0 0 0 0 0 0 0 0 0 0 0 0 0 0 0 0.08 0"/>
<feBlend mode="normal" in2="BackgroundImageFix" result="effect1_dropShadow_179_152"/>
<feBlend mode="normal" in="SourceGraphic" in2="effect1_dropShadow_179_152" result="shape"/>
</filter>
<filter id="filter5_d_179_152" x="0.716935" y="3.09944e-05" width="39.0948" height="105.794" filterUnits="userSpaceOnUse" color-interpolation-filters="sRGB">
<feFlood flood-opacity="0" result="BackgroundImageFix"/>
<feColorMatrix in="SourceAlpha" type="matrix" values="0 0 0 0 0 0 0 0 0 0 0 0 0 0 0 0 0 0 127 0" result="hardAlpha"/>
<feOffset dy="2.64154"/>
<feGaussianBlur stdDeviation="2.64154"/>
<feComposite in2="hardAlpha" operator="out"/>
<feColorMatrix type="matrix" values="0 0 0 0 0 0 0 0 0 0 0 0 0 0 0 0 0 0 0.08 0"/>
<feBlend mode="normal" in2="BackgroundImageFix" result="effect1_dropShadow_179_152"/>
<feBlend mode="normal" in="SourceGraphic" in2="effect1_dropShadow_179_152" result="shape"/>
</filter>
<filter id="filter6_i_179_152" x="132.794" y="3.05176e-05" width="26.4154" height="36.9816" filterUnits="userSpaceOnUse" color-interpolation-filters="sRGB">
<feFlood flood-opacity="0" result="BackgroundImageFix"/>
<feBlend mode="normal" in="SourceGraphic" in2="BackgroundImageFix" result="shape"/>
<feColorMatrix in="SourceAlpha" type="matrix" values="0 0 0 0 0 0 0 0 0 0 0 0 0 0 0 0 0 0 127 0" result="hardAlpha"/>
<feOffset dy="10.5662"/>
<feGaussianBlur stdDeviation="5.28308"/>
<feComposite in2="hardAlpha" operator="arithmetic" k2="-1" k3="1"/>
<feColorMatrix type="matrix" values="0 0 0 0 1 0 0 0 0 1 0 0 0 0 1 0 0 0 0.25 0"/>
<feBlend mode="normal" in2="shape" result="effect1_innerShadow_179_152"/>
</filter>
<filter id="filter7_i_179_152" x="180.342" y="18.4908" width="18.4908" height="29.0569" filterUnits="userSpaceOnUse" color-interpolation-filters="sRGB">
<feFlood flood-opacity="0" result="BackgroundImageFix"/>
<feBlend mode="normal" in="SourceGraphic" in2="BackgroundImageFix" result="shape"/>
<feColorMatrix in="SourceAlpha" type="matrix" values="0 0 0 0 0 0 0 0 0 0 0 0 0 0 0 0 0 0 127 0" result="hardAlpha"/>
<feOffset dy="10.5662"/>
<feGaussianBlur stdDeviation="5.28308"/>
<feComposite in2="hardAlpha" operator="arithmetic" k2="-1" k3="1"/>
<feColorMatrix type="matrix" values="0 0 0 0 1 0 0 0 0 1 0 0 0 0 1 0 0 0 0.25 0"/>
<feBlend mode="normal" in2="shape" result="effect1_innerShadow_179_152"/>
</filter>
<linearGradient id="paint0_linear_179_152" x1="146.002" y1="3.05176e-05" x2="146.002" y2="26.4154" gradientUnits="userSpaceOnUse">
<stop stop-color="#A8EDE1"/>
<stop offset="1" stop-color="#52D6C5"/>
</linearGradient>
<linearGradient id="paint1_linear_179_152" x1="189.587" y1="18.4908" x2="189.587" y2="36.9816" gradientUnits="userSpaceOnUse">
<stop stop-color="#FFCCB3"/>
<stop offset="1" stop-color="#FFB88C"/>
</linearGradient>
</defs>
</svg>
