<svg width="30" height="30" viewBox="0 0 30 30" fill="none" xmlns="http://www.w3.org/2000/svg">
<rect width="30" height="30" rx="6" fill="#7C73FF"/>
<path d="M2.5 22.5V7.5C2.5 4.73858 4.73858 2.5 7.5 2.5H22.5C25.2614 2.5 27.5 4.73858 27.5 7.5V22.5C27.5 25.2614 25.2614 27.5 22.5 27.5H7.5C4.73858 27.5 2.5 25.2614 2.5 22.5Z" stroke="#DBBFFF" stroke-width="1.5"/>
<path d="M19.3749 7.49987C16.8546 7.49981 15 9.99987 15 9.99987C15 9.99987 13.3207 7.49987 10.625 7.49987C8.08676 7.49987 6.25009 9.28563 6.25 11.7856C6.25009 14.2855 7.12509 15.8332 9.74998 18.3332C11.5001 19.9999 15 22.4999 15 22.4999C15 22.4999 18.5 19.9999 20.2499 18.3332C22.875 15.8332 23.75 14.2855 23.75 11.7856C23.75 9.28562 21.9132 7.49993 19.3749 7.49987Z" stroke="#DBBFFF" stroke-width="1.5"/>
</svg>
